<svg xmlns="http://www.w3.org/2000/svg" xmlns:xlink="http://www.w3.org/1999/xlink" preserveAspectRatio="xMidYMid" width="64" height="64" viewBox="0 0 32 32">
  <defs>
    <style>
      .cls-1 {
        fill: #000;
        fill-rule: evenodd;
      }
    </style>
  </defs>
  <path d="M25.741,28.664 C25.649,28.773 25.532,28.856 25.402,28.918 C22.759,30.847 19.515,32.000 16.000,32.000 C12.483,32.000 9.237,30.845 6.593,28.914 C6.468,28.854 6.356,28.773 6.267,28.670 C2.465,25.742 -0.000,21.159 -0.000,16.000 C-0.000,7.177 7.178,-0.000 16.000,-0.000 C24.822,-0.000 32.000,7.177 32.000,16.000 C32.000,21.155 29.539,25.736 25.741,28.664 ZM23.879,27.563 C23.297,24.049 19.902,21.266 16.000,21.266 C12.098,21.266 8.702,24.049 8.122,27.563 C10.368,29.098 13.080,30.000 16.000,30.000 C18.920,30.000 21.633,29.098 23.879,27.563 ZM21.000,13.266 C21.000,10.509 18.757,8.266 16.000,8.266 C13.243,8.266 11.000,10.509 11.000,13.266 C11.000,16.023 13.243,18.266 16.000,18.266 C18.757,18.266 21.000,16.023 21.000,13.266 ZM16.000,2.000 C8.280,2.000 2.000,8.280 2.000,16.000 C2.000,19.986 3.683,23.579 6.365,26.131 C7.292,23.022 9.895,20.569 13.165,19.653 C10.717,18.562 9.000,16.115 9.000,13.266 C9.000,9.405 12.140,6.266 16.000,6.266 C19.860,6.266 23.000,9.405 23.000,13.266 C23.000,16.115 21.283,18.562 18.835,19.653 C22.105,20.568 24.708,23.021 25.635,26.131 C28.317,23.579 30.000,19.986 30.000,16.000 C30.000,8.280 23.720,2.000 16.000,2.000 Z" class="cls-1"/>
</svg>
